<?xml version="1.0" standalone="no"?>
<!DOCTYPE svg PUBLIC "-//W3C//DTD SVG 1.1//EN" "http://www.w3.org/Graphics/SVG/1.1/DTD/svg11.dtd" >
<svg xmlns="http://www.w3.org/2000/svg">
<metadata>
This is a custom SVG webfont generated by Fontspring.
</metadata>
<defs>
<font id="AccordThin" horiz-adv-x="983" >
<font-face units-per-em="2048" ascent="1536" descent="-512" />
<missing-glyph horiz-adv-x="376" />
<glyph unicode=" "  horiz-adv-x="376" />
<glyph unicode="&#x09;" horiz-adv-x="376" />
<glyph unicode="&#xa0;" horiz-adv-x="376" />
<glyph unicode="!" horiz-adv-x="552" d="M240 1331h77v-512q0 -88 -5 -265t-5 -265h-57q0 88 -5 265t-5 265v512zM205 63.5q0 30.5 20.5 51t51 20.5t51 -20.5t20.5 -51t-20.5 -51t-51 -20.5t-51 20.5t-20.5 51z" />
<glyph unicode="&#x22;" horiz-adv-x="493" d="M332 1053l-6 428h57l-6 -428h-45zM117 1053l-6 428h57l-6 -428h-45z" />
<glyph unicode="#" horiz-adv-x="1482" d="M823 0l90 362h-491l-92 -362h-78l90 362h-322v72h340l125 496h-372v71h391l84 330h80l-84 -330h491l84 330h80l-84 -330h301v-71h-319l-125 -496h352v-72h-371l-92 -362h-78zM565 930l-125 -496h492l125 496h-492z" />
<glyph unicode="$" horiz-adv-x="972" d="M68 82l22 72q117 -82 289 -98.5t307 55t135 223.5q0 76 -40 131t-105.5 87t-142.5 59l-156 58q-78 31 -143.5 71t-105.5 110t-40 164q0 158 99.5 238.5t254.5 93.5v305h62v-303q213 -4 352 -99l-22 -71q-74 55 -186.5 81.5t-219 15.5t-183.5 -78t-77 -181 q0 -92 54 -156.5t136 -96.5l177 -68q94 -36 176 -71.5t136 -110.5t54 -181q0 -162 -112.5 -248t-284.5 -98v-305h-62v301q-229 0 -374 100z" />
<glyph unicode="%" horiz-adv-x="1880" d="M760 893q0 -455 -315.5 -455t-315.5 455t315.5 455t315.5 -455zM680 893q0 383 -235.5 383t-235.5 -383q0 -211 60.5 -297t175 -86t175 86t60.5 297zM1751 442.5q0 -454.5 -315.5 -454.5t-315.5 454.5t315.5 454.5t315.5 -454.5zM1671 442q0 383 -235.5 383t-235.5 -383 q0 -211 60.5 -297t175 -86t175 86t60.5 297zM1243 1331h86l-694 -1331h-84z" />
<glyph unicode="&#x26;" horiz-adv-x="1142" d="M1124 668h-200v-203q0 -258 -114 -369.5t-302 -111.5q-102 0 -192.5 33.5t-157 120.5t-66.5 214q0 131 66.5 223.5t195.5 129.5q-121 39 -169 116.5t-48 202.5q0 137 107.5 230.5t263.5 93.5q184 0 319 -78l-20 -68q-133 74 -299 74q-127 0 -209 -76t-82 -176 q0 -125 66.5 -205t226.5 -80h334v269h80v-269h200v-71zM174 352q0 -106 55.5 -177t126 -95.5t152.5 -24.5q70 0 122 15.5t104 55.5t81 126t29 213v203h-334q-150 0 -243 -81t-93 -235z" />
<glyph unicode="'" horiz-adv-x="278" d="M117 1053l-6 428h57l-6 -428h-45z" />
<glyph unicode="(" horiz-adv-x="692" d="M133 512q0 317 105.5 568t334.5 456l45 -41q-190 -158 -305.5 -408.5t-115.5 -574.5t114.5 -572.5t306.5 -410.5l-45 -41q-229 205 -334.5 456t-105.5 568z" />
<glyph unicode=")" horiz-adv-x="692" d="M559 512q0 -317 -105.5 -568t-334.5 -456l-45 41q193 162 307.5 410.5t114.5 572.5t-116 574.5t-306 408.5l45 41q229 -205 334.5 -456t105.5 -568z" />
<glyph unicode="*" horiz-adv-x="946" d="M500 1501v-330l317 103l19 -55l-318 -103l197 -270l-47 -35l-197 270l-195 -268l-47 33l195 268l-313 103l16 55l315 -103v332h58z" />
<glyph unicode="+" horiz-adv-x="1273" d="M1159 694v-53h-493v-465h-58v465h-493v53h493v465h58v-465h493z" />
<glyph unicode="," horiz-adv-x="399" d="M121 63.5q0 30.5 20.5 51t51.5 20.5q90 0 75 -145q-8 -74 -43 -162t-94 -135l-39 37q51 47 82 121.5t33 140.5q-39 -4 -62.5 18.5t-23.5 53z" />
<glyph unicode="-" horiz-adv-x="737" d="M672 539v-54h-606v54h606z" />
<glyph unicode="." horiz-adv-x="401" d="M129 63.5q0 30.5 20.5 51t51 20.5t51 -20.5t20.5 -51t-20.5 -51t-51 -20.5t-51 20.5t-20.5 51z" />
<glyph unicode="/" horiz-adv-x="577" d="M512 1536h66l-512 -1597h-66z" />
<glyph unicode="0" horiz-adv-x="1036" d="M868 639v53q0 322 -89 453t-261 131t-261 -131t-89 -453v-53q0 -317 89 -448.5t261 -131.5t261 131.5t89 448.5zM88 639v53q0 344 107.5 500t322.5 156t322.5 -156t107.5 -500v-53q0 -342 -107.5 -496.5t-322.5 -154.5t-322.5 154.5t-107.5 496.5z" />
<glyph unicode="1" horiz-adv-x="495" d="M18 1260v71h349v-1331h-80v1260h-269z" />
<glyph unicode="2" horiz-adv-x="862" d="M791 975q0 -96 -41 -194.5t-120 -196t-152 -172.5l-179 -180q-106 -103 -160 -160h652v-72h-750v72q72 78 190 194l189 191q70 74 144.5 167t110.5 179t36 172q0 123 -81 212t-224 89q-205 0 -347 -98l-22 71q150 98 369 99q158 0 271.5 -100.5t113.5 -272.5z" />
<glyph unicode="3" horiz-adv-x="925" d="M358 662v71h78q307 0 307 264q0 279 -319 279q-180 0 -326 -98l-22 69q164 100 348 101q203 0 301 -94.5t98 -256.5q0 -221 -202 -303q223 -90 223 -327q0 -180 -105.5 -279.5t-314.5 -99.5q-203 0 -369 98l23 70q143 -96 346 -97q340 0 340 308q0 123 -84 209t-244 86 h-78z" />
<glyph unicode="4" horiz-adv-x="1015" d="M115 430l405 901h82l-405 -901h641v574h80v-1004h-80v358h-723v72z" />
<glyph unicode="5" horiz-adv-x="921" d="M121 692v639h688v-71h-608v-496h186q463 0 463 -377q0 -399 -416 -399q-201 0 -373 98l23 70q152 -96 342 -97q180 0 262 81t82 241q0 182 -106.5 246.5t-360.5 64.5h-182z" />
<glyph unicode="6" horiz-adv-x="978" d="M522 799q168 0 276.5 -101.5t108.5 -283.5q0 -215 -104.5 -320.5t-280.5 -105.5q-125 0 -212 49t-133 142t-65.5 205t-19.5 257q0 356 112.5 531.5t350.5 175.5q188 0 346 -101l-22 -69q-143 98 -326 98q-197 0 -289 -147.5t-92 -409.5q153 80 350 80zM522 733 q-102 0 -177 -19.5t-173 -68.5q0 -135 14.5 -233.5t51 -182.5t108.5 -127t176 -43q141 0 223 85t82 270q0 156 -89 237.5t-216 81.5z" />
<glyph unicode="7" horiz-adv-x="917" d="M303 0h-84l567 1260h-737v71h819v-71z" />
<glyph unicode="8" horiz-adv-x="1011" d="M506 1348q182 0 284.5 -102.5t102.5 -250.5q0 -96 -48 -173t-138 -113q109 -37 170 -128.5t61 -205.5q0 -166 -114.5 -276.5t-317.5 -110.5t-317.5 110.5t-114.5 276.5q0 115 61.5 206t169.5 128q-90 37 -138 113.5t-48 172.5q0 150 101.5 251.5t285.5 101.5zM154 375 q0 -143 93 -229.5t259 -86.5t259 86t93 230q0 133 -93 215t-259 82t-259 -82t-93 -215zM199 995q0 -121 80.5 -189.5t226 -68.5t226.5 68.5t81 189.5q0 115 -79 198t-228.5 83t-228 -83t-78.5 -198z" />
<glyph unicode="9" horiz-adv-x="978" d="M457 537q-168 0 -276.5 101t-108.5 280q0 217 104.5 323.5t280.5 106.5q125 0 212 -49.5t133 -142.5t65.5 -205.5t19.5 -260.5q0 -354 -114 -528t-359 -174q-184 0 -336 100l22 70q59 -41 146.5 -70t169.5 -29q391 0 391 557q-153 -79 -350 -79zM457 602q102 0 177 19.5 t173 68.5q0 135 -14.5 233.5t-51 182.5t-108.5 127t-176 43q-305 0 -305 -358q0 -154 89 -235t216 -81z" />
<glyph unicode=":" horiz-adv-x="401" d="M129 63.5q0 30.5 20.5 51t51 20.5t51 -20.5t20.5 -51t-20.5 -51t-51 -20.5t-51 20.5t-20.5 51zM129 960.5q0 30.5 20.5 51t51 20.5t51 -20.5t20.5 -51t-20.5 -51t-51 -20.5t-51 20.5t-20.5 51z" />
<glyph unicode=";" horiz-adv-x="399" d="M121 960.5q0 30.5 20.5 51t51 20.5t51 -20.5t20.5 -51t-20.5 -51t-51 -20.5t-51 20.5t-20.5 51zM121 63.5q0 30.5 20.5 51t51.5 20.5q90 0 75 -145q-8 -74 -43 -162t-94 -135l-39 37q51 47 82 121.5t33 140.5q-39 -4 -62.5 18.5t-23.5 53z" />
<glyph unicode="&#x3c;" horiz-adv-x="1173" d="M1075 188v-69l-977 538v17l977 543v-70l-864 -481z" />
<glyph unicode="=" horiz-adv-x="1202" d="M1087 455v-54h-972v54h972zM1087 932v-53h-972v53h972z" />
<glyph unicode="&#x3e;" horiz-adv-x="1173" d="M98 119v69l865 478l-865 481v70l977 -543v-17z" />
<glyph unicode="?" horiz-adv-x="899" d="M199 63.5q0 30.5 20.5 51t51 20.5t51 -20.5t20.5 -51t-20.5 -51t-51 -20.5t-51 20.5t-20.5 51zM807 997q0 -43 -9.5 -81.5t-19.5 -66.5t-37 -59l-39 -48q-12 -15 -51 -42.5t-50 -34.5l-57 -34q-46 -27 -50 -29q-61 -47 -93 -77.5t-61 -86t-29 -121.5h-80q0 117 62.5 198 t171.5 159l59 36l64 40q16 10 52 39.5t48 55t25.5 65.5t13.5 87q0 133 -81 206t-197 73q-209 0 -324 -47l-23 69q127 49 347 50q152 0 255 -93.5t103 -257.5z" />
<glyph unicode="@" horiz-adv-x="2254" d="M2028 637q0 236 -68 402.5t-195 261t-287.5 136.5t-369.5 42q-418 0 -649.5 -232.5t-231.5 -711.5q0 -221 48.5 -394.5t130 -283t199.5 -180t245 -100.5t276 -32q360 -4 744 111l12 -59q-377 -113 -756 -109q-166 2 -305 36t-263 110.5t-210 194.5t-135 297t-49 409 q2 485 242.5 743t701.5 258q227 0 401 -47t307.5 -149.5t204 -279.5t70.5 -423q0 -653 -373 -653q-213 0 -266 221q-78 -221 -360 -221q-102 0 -176 34.5t-113 85t-62.5 127t-28.5 139t-5 144.5q0 104 21.5 193.5t70.5 167t140 121.5t216 44q199 0 346 -110v-572 q0 -166 51.5 -241.5t165.5 -75.5q310 0 310 596zM1438 426v471q-125 86 -283 86q-111 0 -188.5 -39t-118.5 -108.5t-59.5 -148.5t-18.5 -173v-75q0 -22 6 -82t16.5 -93t34 -82t57.5 -74.5t87 -46t121 -20.5q168 0 257 104.5t89 280.5z" />
<glyph unicode="A" horiz-adv-x="1089" d="M1008 0l-162 426h-602l-162 -426h-82l504 1331h82l504 -1331h-82zM545 1219l-275 -721h547z" />
<glyph unicode="B" horiz-adv-x="1132" d="M129 1331h422q236 0 347.5 -95t111.5 -249q0 -231 -224 -299q264 -59 265 -330q0 -164 -111 -261t-348 -97h-463v1331zM592 645h-383v-573h383q379 0 379 286.5t-379 286.5zM551 1260h-342v-543h342q379 0 379 270q0 273 -379 273z" />
<glyph unicode="C" horiz-adv-x="1017" d="M172 754v-176q0 -522 442 -523q100 0 199.5 32t144.5 69l23 -70q-160 -102 -367 -102q-242 0 -382 145t-140 449v176q0 303 140.5 448.5t381.5 145.5q174 0 367 -99l-23 -71q-63 41 -158 69.5t-186 28.5q-442 0 -442 -522z" />
<glyph unicode="D" horiz-adv-x="1101" d="M129 0v1331h399q221 0 351.5 -136t130.5 -425v-209q0 -289 -130 -425t-352 -136h-399zM930 561v209q0 489 -402 490h-319v-1188h319q402 0 402 489z" />
<glyph unicode="E" d="M209 666v-594h719v-72h-799v1331h799v-71h-719v-523h637v-71h-637z" />
<glyph unicode="F" horiz-adv-x="964" d="M209 666v-666h-80v1331h799v-71h-719v-523h637v-71h-637z" />
<glyph unicode="G" horiz-adv-x="1073" d="M557 610v72h424v-596q-160 -102 -367 -102q-242 0 -382 145t-140 449v176q0 303 140.5 448.5t381.5 145.5q78 0 152 -17.5t111.5 -33t103.5 -48.5l-23 -71q-63 41 -158 69.5t-186 28.5q-442 0 -442 -522v-176q0 -522 442 -523q152 0 287 64v491h-344z" />
<glyph unicode="H" horiz-adv-x="1138" d="M209 666v-666h-80v1331h80v-594h721v594h80v-1331h-80v666h-721z" />
<glyph unicode="I" horiz-adv-x="337" d="M129 0v1331h80v-1331h-80z" />
<glyph unicode="J" horiz-adv-x="798" d="M670 1331v-938q0 -225 -92.5 -317t-253.5 -92q-145 0 -287 65l22 70q117 -63 265 -64q131 0 198.5 71t67.5 267v867h-469v71h549z" />
<glyph unicode="K" horiz-adv-x="913" d="M270 696l506 635h96l-505 -635l546 -696h-96zM129 0v1331h80v-1331h-80z" />
<glyph unicode="L" horiz-adv-x="864" d="M129 0v1331h80v-1259h637v-72h-717z" />
<glyph unicode="M" horiz-adv-x="1355" d="M129 0v1331h88l461 -774l461 774h88v-1331h-80v1196l-469 -786l-469 786v-1196h-80z" />
<glyph unicode="N" horiz-adv-x="1138" d="M129 0v1331h88l713 -1198v1198h80v-1331h-88l-713 1196v-1196h-80z" />
<glyph unicode="O" horiz-adv-x="1146" d="M975 578v176q0 522 -401.5 522t-401.5 -522v-176q0 -522 401.5 -522t401.5 522zM92 578v176q0 307 129 450.5t352.5 143.5t352.5 -143.5t129 -450.5v-176q0 -307 -129 -450.5t-352.5 -143.5t-352.5 143.5t-129 450.5z" />
<glyph unicode="P" horiz-adv-x="1064" d="M129 1331h422q238 0 348.5 -107.5t110.5 -291.5t-111 -292t-348 -108h-342v-532h-80v1331zM551 1260h-342v-656h342q379 0 379 328t-379 328z" />
<glyph unicode="Q" horiz-adv-x="1146" d="M246 -150v72q63 57 136 59h5q70 0 135 -29l134 -60q64 -29 135 -28h5q73 1 136 58v-72q-63 -55 -136 -57h-10q-68 0 -130 28l-134 59q-63 28 -131 28h-9q-73 -3 -136 -58zM975 578v176q0 522 -401.5 522t-401.5 -522v-176q0 -522 401.5 -522t401.5 522zM92 578v176 q0 307 129 450.5t352.5 143.5t352.5 -143.5t129 -450.5v-176q0 -307 -129 -450.5t-352.5 -143.5t-352.5 143.5t-129 450.5z" />
<glyph unicode="R" horiz-adv-x="1091" d="M1001 0l-391 594h-401v-594h-80v1331h422q238 0 348.5 -98t110.5 -270q0 -305 -318 -359l400 -604h-91zM551 1260h-342v-594h342q203 0 291 76.5t88 220t-88 220.5t-291 77z" />
<glyph unicode="S" horiz-adv-x="968" d="M68 82l22 72q117 -82 289 -99q32 -3 63 -3q134 0 244 59q135 72 135 223q0 76 -40 131t-105.5 87t-142.5 59l-156 58q-78 31 -143.5 71t-105.5 110t-40 164q0 143 89 227t214 99q48 6 97 6q78 0 156 -15q128 -25 212 -82l-22 -71q-74 55 -187 82q-79 19 -155 18 q-32 0 -64 -3q-106 -11 -183 -78t-77 -181q0 -92 54 -156.5t136 -96.5l177 -68q94 -36 176 -71.5t136 -110.5t54 -181q0 -143 -95 -231.5t-228 -108.5q-62 -10 -126 -10q-73 0 -149 13q-141 24 -235 87z" />
<glyph unicode="T" horiz-adv-x="1046" d="M33 1260v71h981v-71h-451v-1260h-80v1260h-450z" />
<glyph unicode="U" horiz-adv-x="1142" d="M111 578v753h79v-753q0 -522 381 -522.5t381 522.5v753h80v-753q0 -305 -124 -449.5t-337 -144.5t-336.5 144.5t-123.5 449.5z" />
<glyph unicode="V" horiz-adv-x="1048" d="M1049 1331l-484 -1331h-82l-483 1331h82l442 -1218l443 1218h82z" />
<glyph unicode="W" horiz-adv-x="1722" d="M901 1331l361 -1200l362 1200h80l-401 -1331h-80l-363 1198l-360 -1198h-80l-402 1331h80l361 -1200l362 1200h80z" />
<glyph unicode="X" horiz-adv-x="1017" d="M131 1331l377 -567l379 567h90l-424 -635l465 -696h-90l-420 629l-418 -629h-90l463 696l-422 635h90z" />
<glyph unicode="Y" horiz-adv-x="1097" d="M1098 1331l-508 -815v-516h-80v512l-510 819h88l461 -733l461 733h88z" />
<glyph unicode="Z" horiz-adv-x="995" d="M78 1260v71h840v-71l-791 -1188h831v-72h-921v72l790 1188h-749z" />
<glyph unicode="[" horiz-adv-x="651" d="M522 -455v-57h-338v2048h338v-57h-274v-1934h274z" />
<glyph unicode="\" horiz-adv-x="581" d="M0 1536h66l516 -1597h-66z" />
<glyph unicode="]" horiz-adv-x="651" d="M129 -512v57h274v1934h-274v57h338v-2048h-338z" />
<glyph unicode="^" horiz-adv-x="1052" d="M539 1454l403 -833h-63l-353 731l-352 -731h-63l403 833h25z" />
<glyph unicode="_" horiz-adv-x="958" d="M940 -16v-54h-922v54h922z" />
<glyph unicode="`" horiz-adv-x="522" d="M317 1536l-170 279h66l162 -279h-58z" />
<glyph unicode="a" horiz-adv-x="923" d="M813 664v-664h-51l-17 150q-33 -82 -119.5 -122t-191.5 -40q-168 0 -273.5 79.5t-105.5 235.5q0 84 36 145.5t101.5 95.5t137 50t166.5 24l245 21v25q0 268 -307 268q-170 0 -313 -62l-21 66q172 63 334 63q174 0 276.5 -79.5t102.5 -255.5zM741 373v205l-245 -21 q-74 -6 -129.5 -17.5t-114.5 -38t-92 -76.5t-33 -122q0 -121 82 -184.5t225 -63.5q307 1 307 318z" />
<glyph unicode="b" horiz-adv-x="1019" d="M129 0v1434h72v-619q74 184 327 184q399 0 400 -507q0 -268 -101.5 -386t-298.5 -118q-256 0 -329 182l-19 -170h-51zM528 55q172 0 250 101.5t78 335.5q0 76 -8 136t-29.5 119.5t-57.5 98.5t-94.5 62.5t-138.5 23.5q-82 0 -142 -23.5t-96 -62.5t-56.5 -98.5t-26.5 -119 t-6 -136.5q0 -229 76.5 -333t250.5 -104z" />
<glyph unicode="c" horiz-adv-x="837" d="M92 494q0 82 7 145t34 134t70 118t121.5 77.5t187.5 30.5q145 0 270 -90l-20 -61q-113 84 -250 84q-109 0 -180.5 -33t-106.5 -97.5t-48 -135t-13 -172.5q0 -438 368 -439q141 0 248 70l21 -62q-117 -76 -269 -75q-440 0 -440 506z" />
<glyph unicode="d" horiz-adv-x="1019" d="M891 1434v-1434h-51l-19 170q-74 -182 -329 -182q-197 0 -298.5 117.5t-101.5 386.5q0 508 400 507q254 0 327 -184v619h72zM492 55q174 0 250.5 103.5t76.5 333.5q0 78 -6 137t-26.5 118.5t-56.5 98.5t-96.5 62.5t-141.5 23.5q-80 0 -138.5 -23.5t-94.5 -62.5 t-57.5 -98.5t-29.5 -120t-8 -135.5q0 -233 78 -335t250 -102z" />
<glyph unicode="e" horiz-adv-x="964" d="M891 537v-76h-727v-8q0 -215 93 -306.5t275 -91.5q184 0 308 70l20 -62q-152 -76 -328 -75q-117 0 -201.5 33.5t-129.5 82t-71 122t-32 132t-6 136.5q0 80 6 139t30 133t64.5 121t117.5 79.5t182 32.5q399 1 399 -462zM164 541v-13h655v13q0 213 -83 302t-244.5 89 t-244.5 -89t-83 -302z" />
<glyph unicode="f" horiz-adv-x="628" d="M129 0v1102q0 344 303 344q129 0 238 -64l-21 -61q-109 57 -217 57q-113 0 -172 -63.5t-59 -212.5v-115h428v-67h-428v-920h-72z" />
<glyph unicode="g" horiz-adv-x="1019" d="M891 987v-1069q0 -229 -101.5 -327.5t-297.5 -98.5q-193 0 -347 74l21 61q139 -68 326 -67q168 0 247.5 76.5t79.5 281.5v248q-74 -178 -327 -178q-106 0 -183.5 34.5t-117 84t-63.5 124t-30 132t-6 131.5q0 506 400 505q254 0 327 -184l21 172h51zM492 932 q-180 0 -254 -112.5t-74 -325.5q0 -72 5 -126.5t24.5 -117t53.5 -102t96.5 -66.5t148.5 -27q184 0 255.5 109.5t71.5 329.5q0 76 -6 132t-25.5 116.5t-54.5 99.5t-96 64.5t-145 25.5z" />
<glyph unicode="h" horiz-adv-x="997" d="M129 0v1434h72v-615q33 90 116.5 135t190.5 45q182 0 280.5 -104t98.5 -342v-553h-72v553q0 209 -76.5 294t-230.5 85q-307 0 -307 -397v-535h-72z" />
<glyph unicode="i" horiz-adv-x="329" d="M129 0v987h72v-987h-72zM109 1382q0 25 16 41.5t40.5 16.5t40 -16.5t15.5 -41.5q0 -23 -15.5 -39t-40 -16t-40.5 16t-16 39z" />
<glyph unicode="j" horiz-adv-x="333" d="M201 987v-1212q0 -152 -60.5 -217.5t-154.5 -65.5q-88 0 -166 43l20 62q66 -37 146 -37q143 0 143 215v1212h72zM109 1382q0 25 16 41.5t40.5 16.5t40 -16.5t15.5 -41.5q0 -23 -15.5 -39t-40 -16t-40.5 16t-16 39z" />
<glyph unicode="k" horiz-adv-x="825" d="M262 520l428 467h94l-428 -467l469 -520h-94zM129 0v1434h72v-1434h-72z" />
<glyph unicode="l" horiz-adv-x="440" d="M129 270v1164h72v-1164q0 -119 33.5 -165t97.5 -46q55 0 108 25l21 -61q-57 -31 -129 -31q-203 -1 -203 278z" />
<glyph unicode="m" horiz-adv-x="1519" d="M129 0v987h51l19 -170q29 90 101.5 136t166.5 46q227 0 301 -200q74 201 303 200q338 0 338 -446v-553h-72v553q0 209 -66.5 294t-199.5 85t-199.5 -85t-66.5 -294v-553h-72v553q0 209 -67.5 294t-198.5 85q-266 0 -266 -397v-535h-72z" />
<glyph unicode="n" horiz-adv-x="997" d="M129 0v987h51l19 -170q33 90 116.5 136t192.5 46q182 0 280.5 -104t98.5 -342v-553h-72v553q0 209 -76.5 294t-230.5 85q-307 0 -307 -397v-535h-72z" />
<glyph unicode="o" d="M819 493.5q0 219.5 -69.5 329t-258 109.5t-258 -109.5t-69.5 -329t69.5 -329t258 -109.5t258 109.5t69.5 329zM92 493.5q0 251.5 95.5 378.5t304 127t304 -127t95.5 -378.5t-95.5 -378.5t-304 -127t-304 127t-95.5 378.5z" />
<glyph unicode="p" horiz-adv-x="1019" d="M129 -512v1499h51l19 -170q74 182 329 182q197 0 298.5 -117.5t101.5 -385.5q0 -508 -400 -508q-254 0 -327 184v-684h-72zM528 932q-174 0 -250.5 -103.5t-76.5 -332.5q0 -78 6 -137.5t26.5 -119t56.5 -98.5t96 -62.5t142 -23.5q80 0 138.5 23.5t94.5 62.5t57.5 98.5 t29.5 120t8 136.5q0 233 -78 334.5t-250 101.5z" />
<glyph unicode="q" horiz-adv-x="1019" d="M891 987v-1499h-72v684q-74 -184 -327 -184q-399 0 -400 508q0 268 101.5 385.5t298.5 117.5q256 0 329 -182l19 170h51zM492 932q-172 0 -250 -101.5t-78 -334.5q0 -76 8 -136.5t29.5 -120t57.5 -98.5t94.5 -62.5t138.5 -23.5q82 0 142 23.5t96 62.5t56.5 98.5t26.5 119 t6 137.5q0 229 -76.5 332.5t-250.5 103.5z" />
<glyph unicode="r" horiz-adv-x="591" d="M129 0v987h51l17 -170q23 96 86 141.5t143 45.5q96 0 156 -41l-35 -60q-45 33 -121 33q-225 0 -225 -424v-512h-72z" />
<glyph unicode="s" horiz-adv-x="882" d="M92 66l21 61q121 -57 259 -73q33 -4 65 -3q99 0 177 36q104 48 105 161q0 92 -62.5 139t-150.5 62.5t-177 35t-151.5 83t-62.5 177.5q0 137 114 204q92 53 208 54q28 0 58 -4q151 -16 263 -94l-21 -61q-102 70 -231 87q-34 5 -66 4q-88 0 -158 -35q-95 -48 -96 -152 q0 -82 45 -130.5t112 -62.5l145 -32q79 -17 145.5 -37.5t112 -82t45.5 -161.5q0 -137 -121 -203q-103 -56 -236 -56q-23 0 -47 2q-162 11 -295 81z" />
<glyph unicode="t" horiz-adv-x="702" d="M129 332v999h72v-344h428v-67h-428v-588q0 -276 225 -277q133 0 238 70l20 -62q-115 -76 -258 -75q-135 0 -216 83t-81 261z" />
<glyph unicode="u" horiz-adv-x="997" d="M868 987v-987h-51l-18 170q-33 -90 -117 -136t-193 -46q-182 0 -280 104.5t-98 341.5v553h71v-553q0 -209 77 -294t230 -85q307 0 308 398v534h71z" />
<glyph unicode="v" horiz-adv-x="925" d="M74 987l389 -899l389 899h74l-426 -987h-74l-426 987h74z" />
<glyph unicode="w" horiz-adv-x="1486" d="M90 987l309 -883l310 883h69l309 -883l308 883h73l-344 -987h-73l-308 877l-307 -877h-74l-344 987h72z" />
<glyph unicode="x" horiz-adv-x="901" d="M129 987l322 -412l321 412h88l-366 -467l407 -520h-88l-362 465l-363 -465h-88l408 520l-367 467h88z" />
<glyph unicode="y" horiz-adv-x="997" d="M868 987v-1069q0 -229 -95 -327.5t-284 -98.5q-182 0 -325 74l20 61q129 -68 305 -67q158 0 233 76.5t75 281.5v248q-33 -90 -117 -134t-191 -44q-182 0 -280 104.5t-98 341.5v553h71v-553q0 -209 77 -294t230 -85q307 0 308 406v526h71z" />
<glyph unicode="z" horiz-adv-x="868" d="M55 920v67h758v-67l-670 -852h670v-68h-758v68l672 852h-672z" />
<glyph unicode="{" horiz-adv-x="905" d="M129 502v57h37q113 0 171 96.5t58 272.5v205q0 190 80 296.5t207 106.5h149v-57h-116q-258 0 -258 -392v-198q0 -270 -170 -359q170 -84 170 -358v-235q0 -391 258 -392h116v-57h-149q-123 0 -205 106.5t-82 296.5v242q0 369 -229 369h-37z" />
<glyph unicode="|" horiz-adv-x="440" d="M252 1536v-2048h-64v2048h64z" />
<glyph unicode="}" horiz-adv-x="905" d="M776 559v-57h-37q-229 0 -229 -369v-242q0 -190 -82 -296.5t-205 -106.5h-149v57h116q258 0 259 392v235q0 274 169 358q-170 88 -169 359v198q0 391 -259 392h-116v57h149q127 0 207 -106.5t80 -296.5v-205q0 -176 58.5 -272.5t170.5 -96.5h37z" />
<glyph unicode="~" horiz-adv-x="1097" d="M111 408q0 371 229 370q66 0 116 -33.5t82 -81.5l60 -94q29 -47 69 -80.5t91 -33.5q172 0 172 317h57q0 -371 -229 -371q-66 0 -115 34t-78 81l-56 94q-28 47 -70 81t-99 34q-172 0 -172 -317h-57z" />
<glyph unicode="&#xa1;" horiz-adv-x="552" d="M317 -406h-77v615q0 88 5 265t5 265h57q0 -88 5 -265t5 -265v-615zM205 964.5q0 30.5 20.5 51t51 20.5t51 -20.5t20.5 -51t-20.5 -51t-51 -20.5t-51 20.5t-20.5 51z" />
<glyph unicode="&#xa2;" horiz-adv-x="837" d="M92 494q0 80 7 141t31 131t65 117t114.5 79.5t173.5 36.5v332h62v-334q121 -8 237 -88l-20 -61q-113 84 -250 84q-109 0 -180.5 -33t-106.5 -97.5t-48 -135t-13 -172.5q0 -438 368 -439q141 0 248 70l21 -62q-115 -74 -256 -75v-295h-62v297q-391 27 -391 504z" />
<glyph unicode="&#xa3;" horiz-adv-x="929" d="M911 72v-72h-716v608h-177v58h177v198q0 244 89 364t277 120q164 0 293 -72l-18 -62q-119 59 -274.5 61.5t-221.5 -103t-66 -330.5v-176h338v-58h-338v-536h637z" />
<glyph unicode="&#xa4;" horiz-adv-x="1323" d="M666 352q-127 0 -207 66l-269 -268l-43 43l269 268q-68 86 -68 202.5t66 204.5l-267 267l43 43l267 -267q80 68 209 68q121 0 202 -66l265 265l43 -43l-263 -263q70 -86 70 -208q0 -127 -72 -209l265 -262l-43 -43l-267 264q-83 -62 -200 -62zM665.5 403 q114.5 0 188.5 73t74 186q0 121 -72 192.5t-190.5 71.5t-190.5 -72t-72 -192q0 -113 74 -186t188.5 -73z" />
<glyph unicode="&#xa5;" horiz-adv-x="1097" d="M1034 551v-57h-444v-222h444v-57h-444v-215h-80v215h-449v57h449v222h-449v57h424l-485 780h88l461 -733l461 733h88l-488 -780h424z" />
<glyph unicode="&#xa6;" horiz-adv-x="440" d="M252 1536v-825h-64v825h64zM252 356v-868h-64v868h64z" />
<glyph unicode="&#xa7;" horiz-adv-x="1091" d="M129 -381l23 72q170 -98 335 -99q162 0 279 72t117 207q0 113 -87 180.5t-276 126.5q-61 20 -102 36.5t-97.5 49.5t-89 69t-57 91t-24.5 123q0 207 194 289q-195 104 -194 297q0 168 119.5 252.5t308.5 84.5q178 0 340 -98l-23 -72q-154 98 -326 99q-145 0 -242.5 -67.5 t-97.5 -192.5q0 -55 19.5 -100.5t46.5 -74t74 -54t82.5 -40t95.5 -32.5q199 -63 307.5 -150.5t108.5 -226.5q0 -205 -205 -297q205 -111 205 -289q0 -176 -136.5 -265t-339.5 -89q-182 0 -358 98zM229 553q0 -72 28 -124t82 -86t104.5 -54.5t125 -45t113.5 -42.5 q201 74 201 256q0 55 -27 101t-65.5 79t-105.5 64.5t-123 52t-140 45.5q-193 -62 -193 -246z" />
<glyph unicode="&#xa8;" horiz-adv-x="874" d="M129 1591q0 25 16.5 41.5t41 16.5t40 -16.5t15.5 -41.5q0 -23 -15.5 -39t-40 -16t-41 16t-16.5 39zM633 1591q0 25 16.5 41.5t41 16.5t39.5 -16.5t15 -41.5q0 -23 -15 -39t-39.5 -16t-41 16t-16.5 39z" />
<glyph unicode="&#xa9;" horiz-adv-x="1882" d="M606 692v72q0 199 92.5 293t247.5 94q121 0 228 -74l-19 -55q-92 70 -209 70q-276 0 -276 -328v-78q0 -172 84 -254t207 -82q117 0 210 58q4 -10 8.5 -29t8.5 -27q-100 -61 -221 -61q-158 0 -259.5 98t-101.5 303zM197 721q0 309 217 527t526 218t527.5 -217t218.5 -528 q0 -309 -218.5 -526.5t-527.5 -217.5t-526 217.5t-217 526.5zM254 721q0 -285 201.5 -487.5t484.5 -202.5q285 0 486.5 202.5t201.5 487.5q0 287 -201.5 489.5t-486.5 202.5q-281 0 -483.5 -203.5t-202.5 -488.5z" />
<glyph unicode="&#xaa;" horiz-adv-x="923" d="M813 664v-664h-51l-17 150q-33 -82 -119.5 -122t-191.5 -40q-168 0 -273.5 79.5t-105.5 235.5q0 84 36 145.5t101.5 95.5t137 50t166.5 24l245 21v25q0 268 -307 268q-170 0 -313 -62l-21 66q172 63 334 63q174 0 276.5 -79.5t102.5 -255.5zM741 373v205l-245 -21 q-74 -6 -129.5 -17.5t-114.5 -38t-92 -76.5t-33 -122q0 -121 82 -184.5t225 -63.5q307 1 307 318z" />
<glyph unicode="&#xab;" horiz-adv-x="899" d="M770 82h-72l-329 430l329 430h72l-330 -430zM494 82h-72l-330 430l330 430h72l-330 -430z" />
<glyph unicode="&#xac;" horiz-adv-x="1107" d="M979 831v-538h-57v485h-830v53h887z" />
<glyph unicode="&#xad;" horiz-adv-x="737" d="M672 539v-54h-606v54h606z" />
<glyph unicode="&#xae;" horiz-adv-x="1882" d="M1208 311l-258 371h-211v-371h-63v819h270q145 0 214 -59t69 -162q0 -90 -53.5 -150.5t-155.5 -72.5l260 -375h-72zM946 1073h-207v-334h207q219 0 219 170q0 164 -219 164zM197 721q0 309 217 527t526 218t527.5 -217t218.5 -528q0 -309 -218.5 -526.5t-527.5 -217.5 t-526 217.5t-217 526.5zM254 721q0 -285 201.5 -487.5t484.5 -202.5q285 0 486.5 202.5t201.5 487.5q0 287 -201.5 489.5t-486.5 202.5q-281 0 -483.5 -203.5t-202.5 -488.5z" />
<glyph unicode="&#xb0;" horiz-adv-x="933" d="M797 1202q0 -139 -96.5 -235.5t-237.5 -96.5q-143 0 -239.5 94.5t-96.5 237.5q0 141 97.5 237.5t238.5 96.5q139 0 236.5 -97.5t97.5 -236.5zM739 1202q0 119 -77.5 200t-196.5 81q-123 0 -202 -81t-79 -200q0 -121 80 -199.5t201 -78.5q109 0 191.5 81.5t82.5 196.5z " />
<glyph unicode="&#xb1;" horiz-adv-x="1200" d="M1122 694v-53h-493v-471h493v-53h-1044v53h493v471h-493v53h493v465h58v-465h493z" />
<glyph unicode="&#xb2;" horiz-adv-x="862" d="M791 975q0 -96 -41 -194.5t-120 -196t-152 -172.5l-179 -180q-106 -103 -160 -160h652v-72h-750v72q72 78 190 194l189 191q70 74 144.5 167t110.5 179t36 172q0 123 -81 212t-224 89q-205 0 -347 -98l-22 71q150 98 369 99q158 0 271.5 -100.5t113.5 -272.5z" />
<glyph unicode="&#xb3;" horiz-adv-x="925" d="M358 662v71h78q307 0 307 264q0 279 -319 279q-180 0 -326 -98l-22 69q164 100 348 101q203 0 301 -94.5t98 -256.5q0 -221 -202 -303q223 -90 223 -327q0 -180 -105.5 -279.5t-314.5 -99.5q-203 0 -369 98l23 70q143 -96 346 -97q340 0 340 308q0 123 -84 209t-244 86 h-78z" />
<glyph unicode="&#xb4;" horiz-adv-x="526" d="M309 1815h70l-174 -279h-58z" />
<glyph unicode="&#xb5;" horiz-adv-x="1015" d="M887 987v-987h-51l-19 170q-27 -70 -83 -113t-111.5 -56t-114.5 -13q-211 0 -307 157v-622h-72v1464h72v-512q0 -420 307 -420t307 396v536h72z" />
<glyph unicode="&#xb6;" horiz-adv-x="935" d="M807 1489v-1690h-64v1624h-172v-1624h-63v781q-188 23 -302 147.5t-114 312.5q0 213 138.5 331t394.5 118h182z" />
<glyph unicode="&#xb7;" horiz-adv-x="364" d="M111 512q0 31 20.5 51.5t51 20.5t51 -20.5t20.5 -51.5t-20.5 -51.5t-51 -20.5t-51 20.5t-20.5 51.5z" />
<glyph unicode="&#xb8;" horiz-adv-x="471" d="M178 51h58l-39 -145q86 16 143 -20t57 -109q0 -76 -52 -116t-120.5 -37t-132.5 22l2 55q20 -10 59.5 -17.5t81 -6.5t73.5 27t32 73q0 39 -22.5 59.5t-59.5 22.5t-69.5 -2t-65.5 -13z" />
<glyph unicode="&#xb9;" horiz-adv-x="495" d="M18 1260v71h349v-1331h-80v1260h-269z" />
<glyph unicode="&#xba;" d="M819 493.5q0 219.5 -69.5 329t-258 109.5t-258 -109.5t-69.5 -329t69.5 -329t258 -109.5t258 109.5t69.5 329zM92 493.5q0 251.5 95.5 378.5t304 127t304 -127t95.5 -378.5t-95.5 -378.5t-304 -127t-304 127t-95.5 378.5z" />
<glyph unicode="&#xbb;" horiz-adv-x="899" d="M201 82h-72l330 430l-330 430h72l329 -430zM477 82h-71l329 430l-329 430h71l330 -430z" />
<glyph unicode="&#xbc;" horiz-adv-x="2097" d="M1197 430l405 901h82l-405 -901h641v574h80v-1004h-80v358h-723v72zM1079 1489h65l-645 -1675h-65zM18 1260v71h349v-1331h-80v1260h-269z" />
<glyph unicode="&#xbd;" horiz-adv-x="1944" d="M1873 975q0 -96 -41 -194.5t-120 -196t-152 -172.5l-179 -180q-106 -103 -160 -160h652v-72h-750v72q72 78 190 194l189 191q70 74 144.5 167t110.5 179t36 172q0 123 -81 212t-224 89q-205 0 -347 -98l-22 71q150 98 369 99q158 0 271.5 -100.5t113.5 -272.5zM1079 1489 h65l-645 -1675h-65zM18 1260v71h349v-1331h-80v1260h-269z" />
<glyph unicode="&#xbe;" horiz-adv-x="2527" d="M1627 430l405 901h82l-405 -901h641v574h80v-1004h-80v358h-723v72zM1509 1489h65l-645 -1675h-65zM358 662v71h78q307 0 307 264q0 279 -319 279q-180 0 -326 -98l-22 69q164 100 348 101q203 0 301 -94.5t98 -256.5q0 -221 -202 -303q223 -90 223 -327 q0 -180 -105.5 -279.5t-314.5 -99.5q-203 0 -369 98l23 70q143 -96 346 -97q340 0 340 308q0 123 -84 209t-244 86h-78z" />
<glyph unicode="&#xbf;" horiz-adv-x="970" d="M711 964.5q0 -30.5 -20.5 -51t-51.5 -20.5t-51.5 20.5t-20.5 51t20.5 51t51.5 20.5t51.5 -20.5t20.5 -51zM102 31q0 43 9.5 82t19.5 66.5t37 59.5l39 47q12 15 51 42.5t50 34.5l57 34q47 27 51 29q90 53 136 101t46 122h80q0 -96 -61.5 -161.5t-172.5 -133.5l-59 -36 l-65 -40q-15 -10 -51 -39.5t-48 -55t-25.5 -65.5t-13.5 -87q0 -133 81 -206t198 -73q188 0 323 74l29 -68q-152 -78 -352 -77q-152 0 -255.5 93t-103.5 257z" />
<glyph unicode="&#xc0;" horiz-adv-x="1089" d="M1008 0l-162 426h-602l-162 -426h-82l504 1331h82l504 -1331h-82zM545 1219l-275 -721h547zM528 1536l-170 279h66l162 -279h-58z" />
<glyph unicode="&#xc1;" horiz-adv-x="1089" d="M1008 0l-162 426h-602l-162 -426h-82l504 1331h82l504 -1331h-82zM545 1219l-275 -721h547zM666 1815h69l-174 -279h-57z" />
<glyph unicode="&#xc2;" horiz-adv-x="1089" d="M1008 0l-162 426h-602l-162 -426h-82l504 1331h82l504 -1331h-82zM545 1219l-275 -721h547zM328 1536l186 279h59l191 -279h-68l-149 227h-4l-148 -227h-67z" />
<glyph unicode="&#xc3;" horiz-adv-x="1089" d="M1008 0l-162 426h-602l-162 -426h-82l504 1331h82l504 -1331h-82zM545 1219l-275 -721h547zM225 1542q0 281 183 281q59 0 98 -37t56.5 -80t48 -80t71.5 -37q125 0 125 228h57q0 -281 -182 -281q-59 0 -98 37t-55.5 80t-47 79.5t-73.5 36.5q-125 0 -125 -227h-58z" />
<glyph unicode="&#xc4;" horiz-adv-x="1089" d="M1008 0l-162 426h-602l-162 -426h-82l504 1331h82l504 -1331h-82zM545 1219l-275 -721h547zM238 1591q0 25 16 41.5t40.5 16.5t40 -16.5t15.5 -41.5q0 -23 -15.5 -39t-40 -16t-40.5 16t-16 39zM741 1591q0 25 16.5 41.5t41 16.5t40 -16.5t15.5 -41.5q0 -23 -15.5 -39 t-40 -16t-41 16t-16.5 39z" />
<glyph unicode="&#xc5;" horiz-adv-x="1089" d="M1008 0l-162 426h-602l-162 -426h-82l504 1331h82l504 -1331h-82zM545 1219l-275 -721h547zM545 1534q-76 0 -120 45t-44 116.5t44 117t120 45.5t120 -45.5t44 -117t-44 -116.5t-120 -45zM545 1587q51 0 78.5 32t27.5 77q0 47 -27.5 77.5t-78.5 30.5t-79 -30.5t-28 -77.5 q0 -45 28 -77t79 -32z" />
<glyph unicode="&#xc6;" horiz-adv-x="1558" d="M0 0l483 1331h1020v-71h-719v-523h637v-71h-637v-594h719v-72h-798v508h-439l-184 -508h-82zM539 1260l-248 -680h414v680h-166z" />
<glyph unicode="&#xc7;" horiz-adv-x="1017" d="M172 754v-176q0 -522 442 -523q100 0 199.5 32t144.5 69l23 -70q-160 -102 -367 -102q-27 0 -79 4l-21 -82q86 16 143.5 -20t57.5 -109q0 -76 -52.5 -116t-121 -37t-131.5 22l2 55q20 -10 59 -17.5t81 -6.5t73.5 27t31.5 73q0 39 -22.5 59.5t-59 22.5t-69.5 -2t-66 -13 l41 152q-182 35 -285.5 179t-103.5 403v176q0 303 140.5 448.5t381.5 145.5q174 0 367 -99l-23 -71q-63 41 -158 69.5t-186 28.5q-442 0 -442 -522z" />
<glyph unicode="&#xc8;" d="M209 666v-594h719v-72h-799v1331h799v-71h-719v-523h637v-71h-637zM584 1536l-170 279h65l162 -279h-57z" />
<glyph unicode="&#xc9;" d="M209 666v-594h719v-72h-799v1331h799v-71h-719v-523h637v-71h-637zM575 1815h70l-174 -279h-57z" />
<glyph unicode="&#xca;" d="M209 666v-594h719v-72h-799v1331h799v-71h-719v-523h637v-71h-637zM311 1536l187 279h59l191 -279h-68l-150 227h-4l-147 -227h-68z" />
<glyph unicode="&#xcb;" d="M209 666v-594h719v-72h-799v1331h799v-71h-719v-523h637v-71h-637zM221 1591q0 25 16.5 41.5t41 16.5t40 -16.5t15.5 -41.5q0 -23 -15.5 -39t-40 -16t-41 16t-16.5 39zM725 1591q0 25 16.5 41.5t41 16.5t40 -16.5t15.5 -41.5q0 -23 -15.5 -39t-40 -16t-41 16t-16.5 39z " />
<glyph unicode="&#xcc;" horiz-adv-x="337" d="M129 0v1331h80v-1331h-80zM152 1536l-170 279h65l162 -279h-57z" />
<glyph unicode="&#xcd;" horiz-adv-x="337" d="M129 0v1331h80v-1331h-80zM291 1815h69l-174 -279h-57z" />
<glyph unicode="&#xce;" horiz-adv-x="337" d="M129 0v1331h80v-1331h-80zM-49 1536l186 279h60l190 -279h-68l-149 227h-4l-148 -227h-67z" />
<glyph unicode="&#xcf;" horiz-adv-x="337" d="M129 0v1331h80v-1331h-80zM-139 1591q0 25 16.5 41.5t41 16.5t39.5 -16.5t15 -41.5q0 -23 -15 -39t-39.5 -16t-41 16t-16.5 39zM365 1591q0 25 16 41.5t40.5 16.5t40 -16.5t15.5 -41.5q0 -23 -15.5 -39t-40 -16t-40.5 16t-16 39z" />
<glyph unicode="&#xd0;" horiz-adv-x="1116" d="M143 0v655h-176v66h176v610h400q221 0 351 -136t130 -425v-209q0 -289 -130 -425t-351 -136h-400zM944 561v209q0 489 -401 490h-320v-539h187v-66h-187v-583h320q401 0 401 489z" />
<glyph unicode="&#xd1;" horiz-adv-x="1138" d="M129 0v1331h88l713 -1198v1198h80v-1331h-88l-713 1196v-1196h-80zM250 1542q0 281 182 281q59 0 98 -37t56.5 -80t48.5 -80t72 -37q125 0 124 228h58q0 -281 -182 -281q-59 0 -98.5 37t-55.5 80t-47 79.5t-74 36.5q-125 0 -125 -227h-57z" />
<glyph unicode="&#xd2;" horiz-adv-x="1146" d="M975 578v176q0 522 -401.5 522t-401.5 -522v-176q0 -522 401.5 -522t401.5 522zM92 578v176q0 307 129 450.5t352.5 143.5t352.5 -143.5t129 -450.5v-176q0 -307 -129 -450.5t-352.5 -143.5t-352.5 143.5t-129 450.5zM547 1536l-170 279h65l162 -279h-57z" />
<glyph unicode="&#xd3;" horiz-adv-x="1146" d="M975 578v176q0 522 -401.5 522t-401.5 -522v-176q0 -522 401.5 -522t401.5 522zM92 578v176q0 307 129 450.5t352.5 143.5t352.5 -143.5t129 -450.5v-176q0 -307 -129 -450.5t-352.5 -143.5t-352.5 143.5t-129 450.5zM705 1815h69l-174 -279h-57z" />
<glyph unicode="&#xd4;" horiz-adv-x="1146" d="M975 578v176q0 522 -401.5 522t-401.5 -522v-176q0 -522 401.5 -522t401.5 522zM92 578v176q0 307 129 450.5t352.5 143.5t352.5 -143.5t129 -450.5v-176q0 -307 -129 -450.5t-352.5 -143.5t-352.5 143.5t-129 450.5zM356 1536l187 279h59l191 -279h-68l-150 227h-4 l-147 -227h-68z" />
<glyph unicode="&#xd5;" horiz-adv-x="1146" d="M975 578v176q0 522 -401.5 522t-401.5 -522v-176q0 -522 401.5 -522t401.5 522zM92 578v176q0 307 129 450.5t352.5 143.5t352.5 -143.5t129 -450.5v-176q0 -307 -129 -450.5t-352.5 -143.5t-352.5 143.5t-129 450.5zM254 1542q0 281 182 281q59 0 98 -37t56.5 -80 t48.5 -80t72 -37q125 0 125 228h57q0 -281 -182 -281q-59 0 -98.5 37t-55.5 80t-47 79.5t-74 36.5q-125 0 -125 -227h-57z" />
<glyph unicode="&#xd6;" horiz-adv-x="1146" d="M975 578v176q0 522 -401.5 522t-401.5 -522v-176q0 -522 401.5 -522t401.5 522zM92 578v176q0 307 129 450.5t352.5 143.5t352.5 -143.5t129 -450.5v-176q0 -307 -129 -450.5t-352.5 -143.5t-352.5 143.5t-129 450.5zM266 1591q0 25 16.5 41.5t41 16.5t40 -16.5 t15.5 -41.5q0 -23 -15.5 -39t-40 -16t-41 16t-16.5 39zM770 1591q0 25 16.5 41.5t41 16.5t40 -16.5t15.5 -41.5q0 -23 -15.5 -39t-40 -16t-41 16t-16.5 39z" />
<glyph unicode="&#xd7;" horiz-adv-x="1355" d="M678 707l471 471l43 -43l-471 -471l471 -471l-43 -43l-471 471l-471 -471l-43 43l471 471l-471 471l43 43z" />
<glyph unicode="&#xd8;" horiz-adv-x="1146" d="M92 578v176q0 307 129 450.5t352.5 143.5t352.5 -143.5t129 -450.5v-176q0 -307 -129 -450.5t-352.5 -143.5t-352.5 143.5t-129 450.5zM975 578v176q0 375 -209 481l-373 -1145q76 -35 180 -35q402 1 402 523zM172 578q0 -340 168 -459l365 1141q-66 16 -132 16 q-401 0 -401 -522v-176z" />
<glyph unicode="&#xd9;" horiz-adv-x="1142" d="M111 578v753h79v-753q0 -522 381 -522.5t381 522.5v753h80v-753q0 -305 -124 -449.5t-337 -144.5t-336.5 144.5t-123.5 449.5zM545 1536l-170 279h65l162 -279h-57z" />
<glyph unicode="&#xda;" horiz-adv-x="1142" d="M111 578v753h79v-753q0 -522 381 -522.5t381 522.5v753h80v-753q0 -305 -124 -449.5t-337 -144.5t-336.5 144.5t-123.5 449.5zM702 1815h70l-174 -279h-57z" />
<glyph unicode="&#xdb;" horiz-adv-x="1142" d="M111 578v753h79v-753q0 -522 381 -522.5t381 522.5v753h80v-753q0 -305 -124 -449.5t-337 -144.5t-336.5 144.5t-123.5 449.5zM354 1536l187 279h59l191 -279h-68l-150 227h-4l-147 -227h-68z" />
<glyph unicode="&#xdc;" horiz-adv-x="1142" d="M111 578v753h79v-753q0 -522 381 -522.5t381 522.5v753h80v-753q0 -305 -124 -449.5t-337 -144.5t-336.5 144.5t-123.5 449.5zM264 1591q0 25 16.5 41.5t41 16.5t40 -16.5t15.5 -41.5q0 -23 -15.5 -39t-40 -16t-41 16t-16.5 39zM768 1591q0 25 16.5 41.5t41 16.5 t40 -16.5t15.5 -41.5q0 -23 -15.5 -39t-40 -16t-41 16t-16.5 39z" />
<glyph unicode="&#xdd;" horiz-adv-x="1097" d="M1098 1331l-508 -815v-516h-80v512l-510 819h88l461 -733l461 733h88zM680 1815h70l-175 -279h-57z" />
<glyph unicode="&#xde;" horiz-adv-x="1064" d="M129 0v1434h80v-205h342q238 0 348.5 -102.5t110.5 -276.5t-111 -276.5t-348 -102.5h-342v-471h-80zM551 1157h-342v-614h342q379 0 379 307t-379 307z" />
<glyph unicode="&#xdf;" horiz-adv-x="999" d="M907 283q0 -147 -98 -223t-268 -76q-96 0 -160 24v84q66 -37 160 -37q287 0 286 228q0 68 -35.5 111.5t-85.5 67.5l-101 46q-50 23 -86 64.5t-36 107.5q0 57 27 98t64 66l76 48q38 24 64.5 64.5t26.5 98.5q0 221 -231 221q-158 0 -229.5 -102.5t-71.5 -329.5v-844h-80 v836q0 264 94 388t287 124q154 0 232.5 -79t78.5 -214q0 -82 -40 -139.5t-89 -83t-89 -64.5t-40 -88q0 -43 36 -74t86 -53.5t100.5 -52t86 -84.5t35.5 -133z" />
<glyph unicode="&#xe0;" horiz-adv-x="923" d="M408 1147l-170 278h65l162 -278h-57zM813 664v-664h-51l-17 150q-33 -82 -119.5 -122t-191.5 -40q-168 0 -273.5 79.5t-105.5 235.5q0 84 36 145.5t101.5 95.5t137 50t166.5 24l245 21v25q0 268 -307 268q-170 0 -313 -62l-21 66q172 63 334 63q174 0 276.5 -79.5 t102.5 -255.5zM741 373v205l-245 -21q-74 -6 -129.5 -17.5t-114.5 -38t-92 -76.5t-33 -122q0 -121 82 -184.5t225 -63.5q307 1 307 318z" />
<glyph unicode="&#xe1;" horiz-adv-x="923" d="M565 1425h70l-174 -278h-58zM813 664v-664h-51l-17 150q-33 -82 -119.5 -122t-191.5 -40q-168 0 -273.5 79.5t-105.5 235.5q0 84 36 145.5t101.5 95.5t137 50t166.5 24l245 21v25q0 268 -307 268q-170 0 -313 -62l-21 66q172 63 334 63q174 0 276.5 -79.5t102.5 -255.5z M741 373v205l-245 -21q-74 -6 -129.5 -17.5t-114.5 -38t-92 -76.5t-33 -122q0 -121 82 -184.5t225 -63.5q307 1 307 318z" />
<glyph unicode="&#xe2;" horiz-adv-x="923" d="M217 1147l186 278h60l190 -278h-67l-150 227h-4l-147 -227h-68zM813 664v-664h-51l-17 150q-33 -82 -119.5 -122t-191.5 -40q-168 0 -273.5 79.5t-105.5 235.5q0 84 36 145.5t101.5 95.5t137 50t166.5 24l245 21v25q0 268 -307 268q-170 0 -313 -62l-21 66q172 63 334 63 q174 0 276.5 -79.5t102.5 -255.5zM741 373v205l-245 -21q-74 -6 -129.5 -17.5t-114.5 -38t-92 -76.5t-33 -122q0 -121 82 -184.5t225 -63.5q307 1 307 318z" />
<glyph unicode="&#xe3;" horiz-adv-x="923" d="M115 1153q0 281 182 281q59 0 98 -37t56.5 -80t48 -80t71.5 -37q125 0 125 227h58q0 -281 -183 -280q-59 0 -98 37t-55.5 80t-47 79.5t-73.5 36.5q-125 0 -125 -227h-57zM813 664v-664h-51l-17 150q-33 -82 -119.5 -122t-191.5 -40q-168 0 -273.5 79.5t-105.5 235.5 q0 84 36 145.5t101.5 95.5t137 50t166.5 24l245 21v25q0 268 -307 268q-170 0 -313 -62l-21 66q172 63 334 63q174 0 276.5 -79.5t102.5 -255.5zM741 373v205l-245 -21q-74 -6 -129.5 -17.5t-114.5 -38t-92 -76.5t-33 -122q0 -121 82 -184.5t225 -63.5q307 1 307 318z" />
<glyph unicode="&#xe4;" horiz-adv-x="923" d="M127 1202q0 25 16.5 41.5t41 16.5t40 -16.5t15.5 -41.5q0 -23 -15.5 -39t-40 -16t-41 16t-16.5 39zM631 1202q0 25 16.5 41.5t41 16.5t39.5 -16.5t15 -41.5q0 -23 -15 -39t-39.5 -16t-41 16t-16.5 39zM813 664v-664h-51l-17 150q-33 -82 -119.5 -122t-191.5 -40 q-168 0 -273.5 79.5t-105.5 235.5q0 84 36 145.5t101.5 95.5t137 50t166.5 24l245 21v25q0 268 -307 268q-170 0 -313 -62l-21 66q172 63 334 63q174 0 276.5 -79.5t102.5 -255.5zM741 373v205l-245 -21q-74 -6 -129.5 -17.5t-114.5 -38t-92 -76.5t-33 -122 q0 -121 82 -184.5t225 -63.5q307 1 307 318z" />
<glyph unicode="&#xe5;" horiz-adv-x="923" d="M434 1147q-76 0 -120 45t-44 116.5t44 116.5t120 45t120 -45t44 -116.5t-44 -116.5t-120 -45zM434 1200q51 0 79 32t28 77q0 47 -28 77.5t-79 30.5t-78.5 -30.5t-27.5 -77.5q0 -45 27.5 -77t78.5 -32zM813 664v-664h-51l-17 150q-33 -82 -119.5 -122t-191.5 -40 q-168 0 -273.5 79.5t-105.5 235.5q0 84 36 145.5t101.5 95.5t137 50t166.5 24l245 21v25q0 268 -307 268q-170 0 -313 -62l-21 66q172 63 334 63q174 0 276.5 -79.5t102.5 -255.5zM741 373v205l-245 -21q-74 -6 -129.5 -17.5t-114.5 -38t-92 -76.5t-33 -122 q0 -121 82 -184.5t225 -63.5q307 1 307 318z" />
<glyph unicode="&#xe6;" horiz-adv-x="1613" d="M1540 537v-76h-727v-8q0 -215 93 -306.5t276 -91.5q186 0 307 70l20 -62q-152 -76 -327 -75q-154 0 -259.5 60.5t-136.5 172.5q-27 -113 -122 -173t-230 -60q-168 0 -273.5 79.5t-105.5 235.5q0 84 36 145.5t101.5 95.5t137 50t166.5 24l245 21v25q0 268 -307 268 q-170 0 -313 -62l-21 66q172 63 334 63q283 0 357 -196q86 197 350 196q399 1 399 -462zM741 373v205l-245 -21q-74 -6 -129.5 -17.5t-114.5 -38t-92 -76.5t-33 -122q0 -121 82 -184.5t225 -63.5q307 1 307 318zM813 541v-13h655v13q0 213 -82.5 302t-244.5 89t-245 -89 t-83 -302z" />
<glyph unicode="&#xe7;" horiz-adv-x="837" d="M92 494q0 82 7 145t34 134t70 118t121.5 77.5t187.5 30.5q145 0 270 -90l-20 -61q-113 84 -250 84q-109 0 -180.5 -33t-106.5 -97.5t-48 -135t-13 -172.5q0 -438 368 -439q141 0 248 70l21 -62q-117 -76 -269 -75q-10 0 -26.5 1t-22.5 1l-22 -84q86 16 143.5 -20 t57.5 -109q0 -76 -52.5 -116t-121 -37t-132.5 22l2 55q20 -10 59.5 -17.5t81.5 -6.5t73.5 27t31.5 73q0 39 -22.5 59.5t-59.5 22.5t-69.5 -2t-65.5 -13l39 152q-334 56 -334 498z" />
<glyph unicode="&#xe8;" horiz-adv-x="964" d="M465 1147l-170 278h65l162 -278h-57zM891 537v-76h-727v-8q0 -215 93 -306.5t275 -91.5q184 0 308 70l20 -62q-152 -76 -328 -75q-117 0 -201.5 33.5t-129.5 82t-71 122t-32 132t-6 136.5q0 80 6 139t30 133t64.5 121t117.5 79.5t182 32.5q399 1 399 -462zM164 541v-13 h655v13q0 213 -83 302t-244.5 89t-244.5 -89t-83 -302z" />
<glyph unicode="&#xe9;" horiz-adv-x="964" d="M623 1425h69l-174 -278h-57zM891 537v-76h-727v-8q0 -215 93 -306.5t275 -91.5q184 0 308 70l20 -62q-152 -76 -328 -75q-117 0 -201.5 33.5t-129.5 82t-71 122t-32 132t-6 136.5q0 80 6 139t30 133t64.5 121t117.5 79.5t182 32.5q399 1 399 -462zM164 541v-13h655v13 q0 213 -83 302t-244.5 89t-244.5 -89t-83 -302z" />
<glyph unicode="&#xea;" horiz-adv-x="964" d="M274 1147l187 278h59l191 -278h-68l-149 227h-5l-147 -227h-68zM891 537v-76h-727v-8q0 -215 93 -306.5t275 -91.5q184 0 308 70l20 -62q-152 -76 -328 -75q-117 0 -201.5 33.5t-129.5 82t-71 122t-32 132t-6 136.5q0 80 6 139t30 133t64.5 121t117.5 79.5t182 32.5 q399 1 399 -462zM164 541v-13h655v13q0 213 -83 302t-244.5 89t-244.5 -89t-83 -302z" />
<glyph unicode="&#xeb;" horiz-adv-x="964" d="M184 1202q0 25 16.5 41.5t41 16.5t40 -16.5t15.5 -41.5q0 -23 -15.5 -39t-40 -16t-41 16t-16.5 39zM688 1202q0 25 16.5 41.5t41 16.5t40 -16.5t15.5 -41.5q0 -23 -15.5 -39t-40 -16t-41 16t-16.5 39zM891 537v-76h-727v-8q0 -215 93 -306.5t275 -91.5q184 0 308 70 l20 -62q-152 -76 -328 -75q-117 0 -201.5 33.5t-129.5 82t-71 122t-32 132t-6 136.5q0 80 6 139t30 133t64.5 121t117.5 79.5t182 32.5q399 1 399 -462zM164 541v-13h655v13q0 213 -83 302t-244.5 89t-244.5 -89t-83 -302z" />
<glyph unicode="&#xec;" horiz-adv-x="329" d="M129 0v987h72v-987h-72zM150 1147l-170 278h65l162 -278h-57z" />
<glyph unicode="&#xed;" horiz-adv-x="329" d="M129 0v987h72v-987h-72zM276 1425h70l-174 -278h-57z" />
<glyph unicode="&#xee;" horiz-adv-x="329" d="M129 0v987h72v-987h-72zM-51 1147l186 278h60l190 -278h-68l-149 227h-4l-148 -227h-67z" />
<glyph unicode="&#xef;" horiz-adv-x="329" d="M129 0v987h72v-987h-72zM-143 1202q0 25 16 41.5t41 16.5t40 -16.5t15 -41.5q0 -23 -15 -39t-40 -16t-41 16t-16 39zM360 1202q0 25 16.5 41.5t41 16.5t40 -16.5t15.5 -41.5q0 -23 -15.5 -39t-40 -16t-41 16t-16.5 39z" />
<glyph unicode="&#xf0;" horiz-adv-x="978" d="M260 997l262 263q-160 98 -368 124l22 76q76 -10 196 -50t203 -97l162 162l39 -39l-155 -156q59 -45 100 -89t82 -117t62.5 -181.5t21.5 -251.5q0 -147 -19.5 -260t-65.5 -206t-133 -142t-212 -49q-176 0 -280.5 106.5t-104.5 323.5q0 182 108.5 283.5t276.5 101.5 q197 0 350 -80q-2 203 -66.5 316.5t-173.5 191.5l-268 -269zM457 727q-127 0 -216 -79t-89 -234q0 -358 305 -359q84 0 146.5 30t101 79t62.5 126t32 158.5t8 190.5q-98 49 -173 68.5t-177 19.5z" />
<glyph unicode="&#xf1;" horiz-adv-x="997" d="M188 1153q0 281 183 281q59 0 98 -37t56.5 -80t48 -80t71.5 -37q125 0 125 227h57q0 -281 -182 -280q-59 0 -98 37t-55.5 80t-47 79.5t-73.5 36.5q-125 0 -125 -227h-58zM129 0v987h51l19 -170q33 90 116.5 136t192.5 46q182 0 280.5 -104t98.5 -342v-553h-72v553 q0 209 -76.5 294t-230.5 85q-307 0 -307 -397v-535h-72z" />
<glyph unicode="&#xf2;" d="M819 493.5q0 219.5 -69.5 329t-258 109.5t-258 -109.5t-69.5 -329t69.5 -329t258 -109.5t258 109.5t69.5 329zM92 493.5q0 251.5 95.5 378.5t304 127t304 -127t95.5 -378.5t-95.5 -378.5t-304 -127t-304 127t-95.5 378.5zM465 1147l-170 278h65l162 -278h-57z" />
<glyph unicode="&#xf3;" d="M819 493.5q0 219.5 -69.5 329t-258 109.5t-258 -109.5t-69.5 -329t69.5 -329t258 -109.5t258 109.5t69.5 329zM92 493.5q0 251.5 95.5 378.5t304 127t304 -127t95.5 -378.5t-95.5 -378.5t-304 -127t-304 127t-95.5 378.5zM623 1425h69l-174 -278h-57z" />
<glyph unicode="&#xf4;" d="M819 493.5q0 219.5 -69.5 329t-258 109.5t-258 -109.5t-69.5 -329t69.5 -329t258 -109.5t258 109.5t69.5 329zM92 493.5q0 251.5 95.5 378.5t304 127t304 -127t95.5 -378.5t-95.5 -378.5t-304 -127t-304 127t-95.5 378.5zM274 1147l187 278h59l191 -278h-68l-149 227h-5 l-147 -227h-68z" />
<glyph unicode="&#xf5;" d="M819 493.5q0 219.5 -69.5 329t-258 109.5t-258 -109.5t-69.5 -329t69.5 -329t258 -109.5t258 109.5t69.5 329zM92 493.5q0 251.5 95.5 378.5t304 127t304 -127t95.5 -378.5t-95.5 -378.5t-304 -127t-304 127t-95.5 378.5zM172 1157q0 281 182 281q59 0 98.5 -37t56.5 -80 t48 -80t72 -37q125 0 125 228h57q0 -281 -182 -281q-59 0 -98 37t-55.5 80t-47.5 79.5t-74 36.5q-125 0 -125 -227h-57z" />
<glyph unicode="&#xf6;" d="M819 493.5q0 219.5 -69.5 329t-258 109.5t-258 -109.5t-69.5 -329t69.5 -329t258 -109.5t258 109.5t69.5 329zM92 493.5q0 251.5 95.5 378.5t304 127t304 -127t95.5 -378.5t-95.5 -378.5t-304 -127t-304 127t-95.5 378.5zM184 1202q0 25 16.5 41.5t41 16.5t40 -16.5 t15.5 -41.5q0 -23 -15.5 -39t-40 -16t-41 16t-16.5 39zM688 1202q0 25 16.5 41.5t41 16.5t40 -16.5t15.5 -41.5q0 -23 -15.5 -39t-40 -16t-41 16t-16.5 39z" />
<glyph unicode="&#xf7;" horiz-adv-x="1273" d="M565 264q0 31 20.5 51.5t51.5 20.5t51.5 -20.5t20.5 -51.5t-20.5 -51t-51.5 -20t-51.5 20t-20.5 51zM565 1030q0 31 20.5 51.5t51.5 20.5t51.5 -20.5t20.5 -51.5t-20.5 -51.5t-51.5 -20.5t-51.5 20.5t-20.5 51.5zM1159 674v-53h-1044v53h1044z" />
<glyph unicode="&#xf8;" d="M92 493.5q0 251.5 95.5 378.5t304 127t304 -127t95.5 -378.5t-95.5 -378.5t-304 -127t-304 127t-95.5 378.5zM819 494q0 164 -37 264t-131 143l-270 -833q45 -12 111 -13q188 0 257.5 110t69.5 329zM164 494q0 -166 37 -266.5t131 -143.5l268 836q-49 12 -108 12 q-188 0 -258 -109.5t-70 -328.5z" />
<glyph unicode="&#xf9;" horiz-adv-x="997" d="M463 1147l-170 278h65l162 -278h-57zM868 987v-987h-51l-18 170q-33 -90 -117 -136t-193 -46q-182 0 -280 104.5t-98 341.5v553h71v-553q0 -209 77 -294t230 -85q307 0 308 398v534h71z" />
<glyph unicode="&#xfa;" horiz-adv-x="997" d="M621 1425h69l-174 -278h-57zM868 987v-987h-51l-18 170q-33 -90 -117 -136t-193 -46q-182 0 -280 104.5t-98 341.5v553h71v-553q0 -209 77 -294t230 -85q307 0 308 398v534h71z" />
<glyph unicode="&#xfb;" horiz-adv-x="997" d="M293 1147l186 278h60l190 -278h-67l-150 227h-4l-148 -227h-67zM868 987v-987h-51l-18 170q-33 -90 -117 -136t-193 -46q-182 0 -280 104.5t-98 341.5v553h71v-553q0 -209 77 -294t230 -85q307 0 308 398v534h71z" />
<glyph unicode="&#xfc;" horiz-adv-x="997" d="M182 1202q0 25 16.5 41.5t41 16.5t40 -16.5t15.5 -41.5q0 -23 -15.5 -39t-40 -16t-41 16t-16.5 39zM686 1202q0 25 16.5 41.5t41 16.5t40 -16.5t15.5 -41.5q0 -23 -15.5 -39t-40 -16t-41 16t-16.5 39zM868 987v-987h-51l-18 170q-33 -90 -117 -136t-193 -46 q-182 0 -280 104.5t-98 341.5v553h71v-553q0 -209 77 -294t230 -85q307 0 308 398v534h71z" />
<glyph unicode="&#xfd;" horiz-adv-x="997" d="M621 1425h69l-174 -278h-57zM868 987v-1069q0 -229 -95 -327.5t-284 -98.5q-182 0 -325 74l20 61q129 -68 305 -67q158 0 233 76.5t75 281.5v248q-33 -90 -117 -134t-191 -44q-182 0 -280 104.5t-98 341.5v553h71v-553q0 -209 77 -294t230 -85q307 0 308 406v526h71z" />
<glyph unicode="&#xfe;" horiz-adv-x="1019" d="M129 -512v1946h72v-617q74 182 327 182q197 0 298.5 -117.5t101.5 -385.5q0 -508 -400 -508q-254 0 -327 184v-684h-72zM528 932q-174 0 -250.5 -103.5t-76.5 -332.5q0 -78 6 -137.5t26.5 -119t56.5 -98.5t96 -62.5t142 -23.5q80 0 138.5 23.5t94.5 62.5t57.5 98.5 t29.5 120t8 136.5q0 233 -78 334.5t-250 101.5z" />
<glyph unicode="&#xff;" horiz-adv-x="997" d="M182 1202q0 25 16.5 41.5t41 16.5t40 -16.5t15.5 -41.5q0 -23 -15.5 -39t-40 -16t-41 16t-16.5 39zM686 1202q0 25 16.5 41.5t41 16.5t40 -16.5t15.5 -41.5q0 -23 -15.5 -39t-40 -16t-41 16t-16.5 39zM868 987v-1069q0 -229 -95 -327.5t-284 -98.5q-182 0 -325 74l20 61 q129 -68 305 -67q158 0 233 76.5t75 281.5v248q-33 -90 -117 -134t-191 -44q-182 0 -280 104.5t-98 341.5v553h71v-553q0 -209 77 -294t230 -85q307 0 308 406v526h71z" />
<glyph unicode="&#x152;" horiz-adv-x="1828" d="M92 578v176q0 307 129 450.5t352 143.5q281 0 402 -218v201h799v-71h-719v-523h637v-71h-637v-594h719v-72h-799v199q-119 -215 -402 -215q-223 0 -352 143.5t-129 450.5zM975 578v204q-10 494 -402 494q-401 0 -401 -522v-176q0 -522 401.5 -522t401.5 522z" />
<glyph unicode="&#x153;" horiz-adv-x="1691" d="M1618 537v-76h-727v-8q0 -215 93 -306.5t276 -91.5q186 0 307 70l20 -62q-152 -76 -327 -75q-322 0 -406 239q-82 -240 -362 -239q-209 0 -304.5 127t-95.5 378.5t95.5 378.5t304.5 127q279 0 360 -235q82 236 367 235q399 1 399 -462zM819 493.5q0 219.5 -69.5 329 t-258 109.5t-258 -109.5t-69.5 -329t69.5 -329t258 -109.5t258 109.5t69.5 329zM891 541v-13h655v13q0 213 -83 302t-244.5 89t-244.5 -89t-83 -302z" />
<glyph unicode="&#x178;" horiz-adv-x="1097" d="M1098 1331l-508 -815v-516h-80v512l-510 819h88l461 -733l461 733h88zM242 1591q0 25 16 41.5t41 16.5t40 -16.5t15 -41.5q0 -23 -15 -39t-40 -16t-41 16t-16 39zM745 1591q0 25 16.5 41.5t41 16.5t40 -16.5t15.5 -41.5q0 -23 -15.5 -39t-40 -16t-41 16t-16.5 39z" />
<glyph unicode="&#x2c6;" horiz-adv-x="813" d="M188 1536l187 279h59l191 -279h-68l-149 227h-5l-147 -227h-68z" />
<glyph unicode="&#x2dc;" d="M172 1542q0 281 182 281q59 0 98.5 -37t56.5 -80t48 -80t72 -37q125 0 125 228h57q0 -281 -182 -281q-59 0 -98 37t-55.5 80t-47.5 79.5t-74 36.5q-125 0 -125 -227h-57z" />
<glyph unicode="&#x2000;" horiz-adv-x="929" />
<glyph unicode="&#x2001;" horiz-adv-x="1858" />
<glyph unicode="&#x2002;" horiz-adv-x="929" />
<glyph unicode="&#x2003;" horiz-adv-x="1858" />
<glyph unicode="&#x2004;" horiz-adv-x="619" />
<glyph unicode="&#x2005;" horiz-adv-x="464" />
<glyph unicode="&#x2006;" horiz-adv-x="309" />
<glyph unicode="&#x2007;" horiz-adv-x="309" />
<glyph unicode="&#x2008;" horiz-adv-x="232" />
<glyph unicode="&#x2009;" horiz-adv-x="371" />
<glyph unicode="&#x200a;" horiz-adv-x="103" />
<glyph unicode="&#x2010;" horiz-adv-x="737" d="M672 539v-54h-606v54h606z" />
<glyph unicode="&#x2011;" horiz-adv-x="737" d="M672 539v-54h-606v54h606z" />
<glyph unicode="&#x2012;" horiz-adv-x="737" d="M672 539v-54h-606v54h606z" />
<glyph unicode="&#x2013;" horiz-adv-x="835" d="M111 557v53h614v-53h-614z" />
<glyph unicode="&#x2014;" horiz-adv-x="1142" d="M111 557v53h921v-53h-921z" />
<glyph unicode="&#x2018;" horiz-adv-x="399" d="M279 1063q0 -31 -20.5 -51.5t-51.5 -20.5q-90 0 -76 146q8 74 43 161.5t94 135.5q6 -6 19.5 -18.5t19.5 -18.5q-51 -47 -81.5 -122t-32.5 -140q39 4 62.5 -18.5t23.5 -53.5z" />
<glyph unicode="&#x2019;" horiz-adv-x="399" d="M121 1362q0 31 20.5 51.5t51.5 20.5q90 0 75 -146q-8 -74 -43 -162t-94 -135l-39 37q51 47 82 122t33 140q-39 -4 -62.5 18.5t-23.5 53.5z" />
<glyph unicode="&#x201a;" horiz-adv-x="399" d="M121 63.5q0 30.5 20.5 51t51.5 20.5q90 0 75 -145q-8 -74 -43 -162t-94 -135l-39 37q51 47 82 121.5t33 140.5q-39 -4 -62.5 18.5t-23.5 53z" />
<glyph unicode="&#x201c;" horiz-adv-x="649" d="M528 1063q0 -31 -20.5 -51.5t-50.5 -20.5q-90 0 -76 146q8 74 43 161.5t94 135.5q6 -6 19.5 -18.5t19.5 -18.5q-51 -47 -82 -122t-33 -140q39 4 62.5 -18.5t23.5 -53.5zM279 1063q0 -31 -20.5 -51.5t-51.5 -20.5q-90 0 -76 146q8 74 43 161.5t94 135.5q6 -6 19.5 -18.5 t19.5 -18.5q-51 -47 -81.5 -122t-32.5 -140q39 4 62.5 -18.5t23.5 -53.5z" />
<glyph unicode="&#x201d;" horiz-adv-x="649" d="M121 1362q0 31 20.5 51.5t51.5 20.5q90 0 75 -146q-8 -74 -43 -162t-94 -135l-39 37q51 47 82 122t33 140q-39 -4 -62.5 18.5t-23.5 53.5zM371 1362q0 31 20.5 51.5t50.5 20.5q90 0 76 -146q-8 -74 -43 -162t-94 -135l-39 37q51 47 82 122t33 140q-39 -4 -62.5 18.5 t-23.5 53.5z" />
<glyph unicode="&#x201e;" horiz-adv-x="649" d="M371 63.5q0 30.5 20.5 51t50.5 20.5q90 0 76 -145q-8 -74 -43 -162t-94 -135l-39 37q51 47 82 121.5t33 140.5q-39 -4 -62.5 18.5t-23.5 53zM121 63.5q0 30.5 20.5 51t51.5 20.5q90 0 75 -145q-8 -74 -43 -162t-94 -135l-39 37q51 47 82 121.5t33 140.5 q-39 -4 -62.5 18.5t-23.5 53z" />
<glyph unicode="&#x2022;" horiz-adv-x="475" d="M383 651.5q0 -63.5 -41 -104.5t-104.5 -41t-104.5 41t-41 104.5t41 104.5t104.5 41t104.5 -41t41 -104.5z" />
<glyph unicode="&#x2026;" horiz-adv-x="1425" d="M1153 63.5q0 30.5 20.5 51t51 20.5t51 -20.5t20.5 -51t-20.5 -51t-51 -20.5t-51 20.5t-20.5 51zM641 63.5q0 30.5 20.5 51t51 20.5t51 -20.5t20.5 -51t-20.5 -51t-51 -20.5t-51 20.5t-20.5 51zM129 63.5q0 30.5 20.5 51t51 20.5t51 -20.5t20.5 -51t-20.5 -51t-51 -20.5 t-51 20.5t-20.5 51z" />
<glyph unicode="&#x202f;" horiz-adv-x="371" />
<glyph unicode="&#x2039;" horiz-adv-x="727" d="M635 217v-67l-543 370v53l543 369v-68l-488 -327z" />
<glyph unicode="&#x203a;" horiz-adv-x="727" d="M92 150v67l488 330l-488 327v68l543 -369v-53z" />
<glyph unicode="&#x2044;" horiz-adv-x="587" d="M584 1489h65l-645 -1675h-65z" />
<glyph unicode="&#x205f;" horiz-adv-x="464" />
<glyph unicode="&#x20ac;" horiz-adv-x="1236" d="M391 754v-176v-48h623v-57h-619q43 -418 439 -418q100 0 199.5 32t144.5 69l22 -70q-160 -102 -366 -102q-219 0 -356.5 119.5t-162.5 369.5h-274v57h270v48v176v34h-270v58h274q20 256 158.5 379t360.5 123q174 0 366 -99l-22 -71q-63 41 -158.5 69.5t-185.5 28.5 q-401 0 -439 -430h619v-58h-623v-34z" />
<glyph unicode="&#x2122;" horiz-adv-x="1736" d="M1626 1331v-817h-57v733l-303 -733h-41l-314 733v-733h-57v817h86l305 -721l295 721h86zM680 1331v-53h-274v-764h-58v764h-274v53h606z" />
<glyph unicode="&#xe000;" horiz-adv-x="985" d="M0 985h985v-985h-985v985z" />
<glyph unicode="&#xfb01;" horiz-adv-x="958" d="M129 0v1102q0 344 303 344q129 0 238 -64l-21 -61q-109 57 -217 57q-113 0 -172 -63.5t-59 -212.5v-115h428v-67h-428v-920h-72zM758 0v987h71v-987h-71zM737 1382q0 25 16.5 41.5t41 16.5t40 -16.5t15.5 -41.5q0 -23 -15.5 -39t-40 -16t-41 16t-16.5 39z" />
<glyph unicode="&#xfb02;" horiz-adv-x="1069" d="M129 0v1102q0 344 303 344q129 0 238 -64l-21 -61q-109 57 -217 57q-113 0 -172 -63.5t-59 -212.5v-115h428v-67h-428v-920h-72zM758 270v1164h71v-1164q0 -119 34 -165t98 -46q55 0 108 25l21 -61q-57 -31 -129 -31q-203 -1 -203 278z" />
<glyph unicode="&#xfb03;" horiz-adv-x="1585" d="M1385 0v987h72v-987h-72zM1365 1382q0 25 16 41.5t40.5 16.5t40 -16.5t15.5 -41.5q0 -23 -15.5 -39t-40 -16t-40.5 16t-16 39zM757 0v1102q0 344 303 344q129 0 238 -64l-21 -61q-109 57 -217 57q-113 0 -172 -63.5t-59 -212.5v-115h428v-67h-428v-920h-72zM129 0v1102 q0 344 303 344q129 0 238 -64l-21 -61q-109 57 -217 57q-113 0 -172 -63.5t-59 -212.5v-115h428v-67h-428v-920h-72z" />
<glyph unicode="&#xfb04;" horiz-adv-x="1696" d="M1385 270v1164h72v-1164q0 -119 33.5 -165t97.5 -46q55 0 108 25l21 -61q-57 -31 -129 -31q-203 -1 -203 278zM757 0v1102q0 344 303 344q129 0 238 -64l-21 -61q-109 57 -217 57q-113 0 -172 -63.5t-59 -212.5v-115h428v-67h-428v-920h-72zM129 0v1102q0 344 303 344 q129 0 238 -64l-21 -61q-109 57 -217 57q-113 0 -172 -63.5t-59 -212.5v-115h428v-67h-428v-920h-72z" />
</font>
</defs>
</svg>
